# Blender v2.79 (sub 0) OBJ File: 'liminal-celing-lamp.blend'
# www.blender.org
mtllib liminal_ceiling_lamp.mtl
o liminal-celing-lamp_liminal-lamp_Cube.001
v -0.500000 0.437500 0.500000
v -0.500000 0.500000 0.500000
v -0.500000 0.437500 -0.500000
v -0.500000 0.500000 -0.500000
v 0.500000 0.437500 0.500000
v 0.500000 0.500000 0.500000
v 0.500000 0.437500 -0.500000
v 0.500000 0.500000 -0.500000
vt 0.968441 0.004007
vt 0.981734 0.004007
vt 0.981734 0.057178
vt 0.968441 0.057178
vt 0.981734 0.004007
vt 0.995027 0.004007
vt 0.995027 0.057178
vt 0.981734 0.057178
vt 0.955149 0.004007
vt 0.968441 0.004007
vt 0.968441 0.057178
vt 0.955149 0.057178
vt 0.941856 0.004007
vt 0.955148 0.004007
vt 0.955149 0.057178
vt 0.941856 0.057178
vt 0.015626 0.990575
vt 0.928567 0.990575
vt 0.928567 0.077634
vt 0.015626 0.077634
vt 0.995458 0.993308
vt 0.945277 0.993308
vt 0.945277 0.943126
vt 0.995458 0.943126
vn -1.0000 0.0000 0.0000
vn 0.0000 0.0000 -1.0000
vn 1.0000 0.0000 0.0000
vn 0.0000 0.0000 1.0000
vn 0.0000 -1.0000 -0.0000
vn 0.0000 1.0000 0.0000
usemtl None
s off
f 1/1/1 2/2/1 4/3/1 3/4/1
f 3/5/2 4/6/2 8/7/2 7/8/2
f 7/9/3 8/10/3 6/11/3 5/12/3
f 5/13/4 6/14/4 2/15/4 1/16/4
f 3/17/5 7/18/5 5/19/5 1/20/5
f 8/21/6 4/22/6 2/23/6 6/24/6
